<svg width="24.000000" height="24.000000" viewBox="0 0 24 24" fill="none" xmlns="http://www.w3.org/2000/svg" xmlns:xlink="http://www.w3.org/1999/xlink">
	<desc>
			Created with Pixso.
	</desc>
	<defs>
		<clipPath id="clip4008_351">
			<rect id="mdi--bin 1" rx="0.000000" width="23.000000" height="23.000000" transform="translate(0.500000 0.500000)" fill="white" fill-opacity="0"/>
		</clipPath>
	</defs>
	<rect id="mdi--bin 1" rx="0.000000" width="23.000000" height="23.000000" transform="translate(0.500000 0.500000)" fill="#FFFFFF" fill-opacity="0"/>
	<g clip-path="url(#clip4008_351)">
		<path id="Vector" d="M19 4L15.5 4L14.5 3L9.5 3L8.5 4L5 4L5 6L19 6L19 4ZM6 19C6 19.53 6.21 20.03 6.58 20.41C6.96 20.78 7.46 21 8 21L16 21C16.53 21 17.03 20.78 17.41 20.41C17.78 20.03 18 19.53 18 19L18 7L6 7L6 19Z" fill="#C80000" fill-opacity="1.000000" fill-rule="nonzero"/>
	</g>
</svg>
