<svg width="66.666992" height="38.333496" viewBox="0 0 66.667 38.3335" fill="none" xmlns="http://www.w3.org/2000/svg" xmlns:xlink="http://www.w3.org/1999/xlink">
	<defs/>
	<path id="Vector" d="M41.66 21.84L41.66 16.54C41.66 14.76 38.31 13.33 34.16 13.33C30.01 13.33 26.66 14.76 26.66 16.54L26.66 21.84C26.75 23.59 30.08 24.99 34.16 24.99C38.25 24.99 41.58 23.59 41.66 21.84ZM33.33 23.48L33.33 20.46C36.96 20.79 39.45 19.56 40 18.89L40 21.84C38.25 23.53 34.66 23.63 33.33 23.48ZM34.16 18.94C37.26 18.94 39.78 17.98 39.78 16.79C39.78 15.63 37.28 14.64 34.16 14.64C31.06 14.64 28.55 15.61 28.55 16.81C28.55 17.98 31.05 18.94 34.16 18.94Z" fill="#C80000" fill-opacity="1.000000" fill-rule="evenodd"/>
	<path id="Vector" d="M58.33 9.88C58.33 8.1 54.98 6.66 50.83 6.66C48.9 6.66 47.13 6.98 45.79 7.5L41.66 5.85L41.66 3.21C41.66 1.43 38.31 0 34.16 0C30.01 0 26.66 1.43 26.66 3.21L26.66 5.35L21.83 7.25C20.42 6.84 18.96 6.65 17.5 6.66C13.34 6.66 10 8.1 10 9.88L10 11.88L0 15.78L0 24.85L33.58 38.33L66.66 25.46L66.66 15.78L58.33 12.48L58.33 9.88ZM41.66 8.51C41.58 10.26 38.25 11.66 34.16 11.66C30.08 11.66 26.75 10.26 26.66 8.51L26.66 6.88L23.63 8.03C24.5 8.54 25 9.2 25 9.88L25 15.18C24.91 16.93 21.58 18.33 17.5 18.33C13.41 18.33 10.08 16.93 10 15.18L10 13.18L2.91 15.85L33.38 27.64L64.29 15.85L58.33 13.63L58.33 15.18C58.25 16.93 54.91 18.33 50.83 18.33C46.75 18.33 43.41 16.93 43.33 15.18L43.33 9.88C43.33 9.33 43.65 8.83 44.2 8.38L41.66 7.43L41.66 8.51ZM35 28.88L35 36.16L65 24.66L65 17.14L35 28.88ZM39.78 3.46C39.78 4.64 37.28 5.63 34.16 5.63C31.06 5.63 28.54 4.64 28.54 3.46C28.54 2.29 31.04 1.31 34.16 1.31C37.26 1.31 39.78 2.28 39.78 3.48L39.78 3.46ZM33.33 7.13L33.33 10.13C34.66 10.29 38.25 10.2 40 8.51L40 5.56C39.45 6.23 36.96 7.46 33.33 7.13ZM23.11 10.13C23.11 11.31 20.61 12.29 17.5 12.29C14.4 12.29 11.88 11.31 11.88 10.13C11.88 8.96 14.38 7.98 17.5 7.98C20.59 7.98 23.11 8.95 23.11 10.14L23.11 10.13ZM16.66 13.79L16.66 16.79C18 16.96 21.58 16.86 23.33 15.18L23.33 12.23C22.78 12.89 20.29 14.13 16.66 13.79ZM56.45 10.13C56.45 11.31 53.95 12.29 50.83 12.29C47.73 12.29 45.21 11.31 45.21 10.13C45.21 8.96 47.71 7.98 50.83 7.98C53.93 7.98 56.45 8.95 56.45 10.14L56.45 10.13ZM50 13.79L50 16.79C51.33 16.96 54.91 16.86 56.66 15.18L56.66 12.23C56.11 12.89 53.63 14.13 50 13.79Z" fill="#C80000" fill-opacity="1.000000" fill-rule="evenodd"/>
</svg>
