<svg width="32.000000" height="32.000000" viewBox="0 0 32 32" fill="none" xmlns="http://www.w3.org/2000/svg" xmlns:xlink="http://www.w3.org/1999/xlink">
	<defs>
		<clipPath id="clip4008_23">
			<rect id="ix--user-profile-filled 1" rx="0.000000" width="31.000000" height="31.000000" transform="translate(0.500000 0.500000)" fill="white" fill-opacity="0"/>
		</clipPath>
	</defs>
	<rect id="ix--user-profile-filled 1" rx="0.000000" width="31.000000" height="31.000000" transform="translate(0.500000 0.500000)" fill="#FFFFFF" fill-opacity="0"/>
	<g clip-path="url(#clip4008_23)">
		<path id="Vector" d="M16 2.66C17.75 2.66 19.48 3.01 21.1 3.68C22.72 4.35 24.19 5.33 25.42 6.57C26.66 7.81 27.64 9.27 28.31 10.89C28.98 12.51 29.33 14.24 29.33 16C29.33 23.36 23.36 29.33 16 29.33C8.63 29.33 2.66 23.36 2.66 16C2.66 8.63 8.63 2.66 16 2.66ZM17.33 17.33L14.66 17.33C11.36 17.33 8.53 19.33 7.3 22.18C9.24 24.89 12.41 26.66 16 26.66C19.58 26.66 22.75 24.89 24.69 22.18C23.46 19.33 20.63 17.33 17.33 17.33ZM16 6.66C13.79 6.66 12 8.45 12 10.66C12 12.87 13.79 14.66 16 14.66C18.2 14.66 20 12.87 20 10.66C20 8.45 18.2 6.66 16 6.66Z" fill="#C80000" fill-opacity="1.000000" fill-rule="evenodd"/>
	</g>
</svg>
